<?xml version="1.0" standalone="no"?>
<!DOCTYPE svg PUBLIC "-//W3C//DTD SVG 20010904//EN"
 "http://www.w3.org/TR/2001/REC-SVG-20010904/DTD/svg10.dtd">
<svg version="1.0" xmlns="http://www.w3.org/2000/svg"
 width="1000.000000pt" height="1000.000000pt" viewBox="0 0 1000.000000 1000.000000"
 preserveAspectRatio="xMidYMid meet">
<metadata>
Created by potrace 1.11, written by Peter Selinger 2001-2013
</metadata>
<g transform="translate(0.000000,1000.000000) scale(0.100000,-0.100000)"
fill="#000000" stroke="none">
<path d="M4830 9985 c-260 -45 -521 -151 -960 -390 -165 -90 -125 -67 -705
-400 -280 -161 -663 -379 -850 -485 -187 -106 -421 -240 -520 -298 -785 -456
-1046 -690 -1202 -1077 -23 -58 -63 -206 -77 -293 -14 -80 -18 -105 -30 -194
-3 -18 -8 -76 -11 -128 -3 -52 -8 -120 -11 -150 -10 -135 -14 -592 -17 -1780
-2 -1402 0 -1474 48 -1778 65 -402 227 -669 571 -938 45 -35 108 -82 140 -104
81 -56 196 -133 216 -145 397 -240 521 -314 708 -422 124 -72 239 -139 257
-149 17 -11 80 -47 140 -81 262 -152 830 -485 936 -549 49 -30 90 -54 93 -54
2 0 33 -18 69 -40 36 -22 67 -40 69 -40 2 0 35 -18 73 -39 151 -87 185 -105
355 -190 283 -142 511 -224 698 -250 68 -9 300 -7 360 4 284 51 582 182 1165
509 22 13 67 38 100 56 33 18 68 40 78 48 9 8 17 12 17 8 0 -4 12 1 28 12 15
11 135 81 267 157 132 76 254 145 270 155 95 55 607 347 645 368 25 13 74 42
110 62 36 20 88 50 115 65 107 59 417 242 562 331 526 326 759 568 881 914 33
95 67 236 77 320 4 30 8 57 10 60 2 3 6 39 10 80 3 41 8 91 10 110 20 199 25
552 27 1940 3 1356 1 1435 -38 1715 -52 378 -164 611 -408 849 -136 133 -276
237 -591 441 -70 46 -405 245 -411 245 -3 0 -17 8 -32 19 -20 14 -652 382
-947 551 -16 10 -169 100 -340 200 -614 362 -899 517 -1138 619 -103 44 -249
96 -300 106 -10 2 -26 6 -35 9 -9 3 -30 8 -47 11 -16 2 -41 7 -55 11 -54 12
-307 12 -380 -1z"/>
</g>
</svg>
